<svg
    xmlns="http://www.w3.org/2000/svg"
    viewBox="0 0 1024 1024"
    id="vector">
    <g
        id="group_2"
        transform="translate(384 384) rotate(10 1 1)">
        <path
            id="path_2"
            d="M 484.777 1.787 C 474.423 6.021 375.398 29.569 256.004 29.569 C 136.6 29.569 37.576 6.022 27.222 1.787 C 12.973 -4.031 14.152 5.673 14.152 12.057 L 14.152 236.671 C 14.152 396.068 157.951 512 256.005 512 C 354.049 512 497.848 396.068 497.848 236.671 L 497.848 12.057 C 497.847 5.673 499.036 -4.03 484.777 1.787 Z M 92.468 193.52 C 98.853 162.089 128.236 140.108 160.77 143.597 C 193.483 147.124 217.604 175.131 216.888 207.438 C 198.782 196.405 178.045 189.106 155.584 186.683 C 133.565 184.316 112.168 186.899 92.468 193.52 Z M 256.005 407.43 C 227.677 407.43 131.811 394.35 120.919 298.485 C 138.346 313.743 194.992 339.883 256.005 339.883 C 317.008 339.883 373.654 313.743 391.081 298.485 C 380.189 394.351 284.323 407.43 256.005 407.43 Z M 356.425 186.683 C 333.963 189.107 313.217 196.405 295.111 207.438 C 294.395 175.131 318.516 147.124 351.229 143.597 C 383.763 140.107 413.147 162.089 419.531 193.52 C 399.831 186.899 378.435 184.316 356.425 186.683 Z"
            fill="#d979c3"
            stroke-width="1"/>
    </g>
    <g
        id="group_1"
        transform="translate(128 160) rotate(-10 0 0)">
        <path
            id="path"
            d="M 476.623 13.173 C 468.23 4.675 456.896 0 444.716 0 C 437.892 0 431.086 1.433 423.944 4.374 C 414.326 7.471 342.739 24.886 256.003 24.886 C 169.268 24.886 97.672 7.471 88.062 4.374 C 80.92 1.433 74.123 0 67.299 0 C 55.102 0 43.768 4.675 35.384 13.173 C 21.814 26.897 22.013 43.691 22.082 50.006 L 22.091 50.687 L 22.091 239.727 C 22.091 310.875 49.875 379.737 100.329 433.615 C 146.288 482.697 204.48 512 256.003 512 C 307.519 512 365.718 482.697 411.677 433.615 C 462.131 379.737 489.916 310.875 489.916 239.727 L 489.916 50.006 C 489.994 43.691 490.192 26.897 476.623 13.173 Z M 449.382 50.687 L 449.382 239.727 C 449.382 373.897 334.396 471.466 256.003 471.466 C 177.61 471.466 62.624 373.897 62.624 239.727 L 62.624 50.687 C 62.624 46.469 62.046 40.534 67.292 40.534 C 68.732 40.534 70.621 40.983 73.079 42.044 C 81.36 45.606 160.53 65.42 256.003 65.42 C 351.467 65.42 430.647 45.606 438.927 42.043 C 441.385 40.982 443.266 40.533 444.715 40.533 C 449.96 40.534 449.382 46.469 449.382 50.687 Z"
            fill="#4599d7"
            stroke-width="1"
            stroke-linecap="round"
            stroke-linejoin="round"/>
        <path
            id="path_1"
            d="M 136.325 293.64 C 145.978 378.572 230.91 390.157 256.003 390.157 C 281.096 390.157 366.029 378.572 375.682 293.64 C 360.241 307.157 310.055 330.318 256.003 330.318 C 201.952 330.318 151.766 307.157 136.325 293.64 Z M 167.034 194.596 C 186.934 196.735 205.316 203.205 221.352 212.97 C 221.99 184.357 200.615 159.54 171.632 156.418 C 142.812 153.329 116.778 172.798 111.12 200.644 C 128.571 194.786 147.531 192.49 167.034 194.596 Z M 340.375 156.417 C 311.391 159.539 290.016 184.356 290.654 212.969 C 306.69 203.204 325.072 196.735 344.972 194.595 C 364.476 192.49 383.436 194.785 400.886 200.642 C 395.227 172.797 369.194 153.328 340.375 156.417 Z"
            fill="#208758"
            stroke-width="1"
            stroke-linecap="square"/>
    </g>
</svg>
